<mxfile host="app.diagrams.net" modified="2023-09-17T09:19:49.691Z" agent="Mozilla/5.0 (Windows NT 10.0; Win64; x64) AppleWebKit/537.36 (KHTML, like Gecko) Chrome/116.0.0.0 Safari/537.36" etag="Hd-5iexvWJK7zkOT3eRn" version="21.7.5" type="github" pages="2">
  <diagram name="Page-1" id="aW8Af9oP-AqIqSo3x8vM">
    <mxGraphModel dx="794" dy="456" grid="1" gridSize="10" guides="1" tooltips="1" connect="1" arrows="1" fold="1" page="1" pageScale="1" pageWidth="827" pageHeight="1169" math="0" shadow="0">
      <root>
        <mxCell id="0" />
        <mxCell id="1" parent="0" />
        <mxCell id="G6i_hRRT8_Z-7Q2OzLo--1" value="Sign Up" style="strokeWidth=2;html=1;shape=mxgraph.flowchart.start_1;whiteSpace=wrap;" vertex="1" parent="1">
          <mxGeometry x="250" y="20" width="100" height="60" as="geometry" />
        </mxCell>
        <mxCell id="G6i_hRRT8_Z-7Q2OzLo--2" value="User" style="rounded=0;whiteSpace=wrap;html=1;" vertex="1" parent="1">
          <mxGeometry x="20" y="90" width="90" height="30" as="geometry" />
        </mxCell>
        <mxCell id="G6i_hRRT8_Z-7Q2OzLo--4" value="Login" style="strokeWidth=2;html=1;shape=mxgraph.flowchart.start_1;whiteSpace=wrap;" vertex="1" parent="1">
          <mxGeometry x="250" y="120" width="100" height="60" as="geometry" />
        </mxCell>
        <mxCell id="G6i_hRRT8_Z-7Q2OzLo--8" value="" style="endArrow=classic;html=1;rounded=0;exitX=1;exitY=0.5;exitDx=0;exitDy=0;edgeStyle=orthogonalEdgeStyle;entryX=0;entryY=0.5;entryDx=0;entryDy=0;entryPerimeter=0;" edge="1" parent="1" source="G6i_hRRT8_Z-7Q2OzLo--2" target="G6i_hRRT8_Z-7Q2OzLo--1">
          <mxGeometry width="50" height="50" relative="1" as="geometry">
            <mxPoint x="370" y="250" as="sourcePoint" />
            <mxPoint x="210" y="70" as="targetPoint" />
          </mxGeometry>
        </mxCell>
        <mxCell id="G6i_hRRT8_Z-7Q2OzLo--9" value="" style="endArrow=classic;html=1;rounded=0;edgeStyle=orthogonalEdgeStyle;exitX=0.837;exitY=1.022;exitDx=0;exitDy=0;exitPerimeter=0;entryX=0;entryY=0.5;entryDx=0;entryDy=0;entryPerimeter=0;" edge="1" parent="1" source="G6i_hRRT8_Z-7Q2OzLo--2" target="G6i_hRRT8_Z-7Q2OzLo--4">
          <mxGeometry width="50" height="50" relative="1" as="geometry">
            <mxPoint x="370" y="250" as="sourcePoint" />
            <mxPoint x="420" y="200" as="targetPoint" />
          </mxGeometry>
        </mxCell>
        <mxCell id="G6i_hRRT8_Z-7Q2OzLo--10" value="" style="endArrow=none;html=1;rounded=0;" edge="1" parent="1">
          <mxGeometry width="50" height="50" relative="1" as="geometry">
            <mxPoint x="520" y="20" as="sourcePoint" />
            <mxPoint x="580" y="20" as="targetPoint" />
          </mxGeometry>
        </mxCell>
        <mxCell id="G6i_hRRT8_Z-7Q2OzLo--11" value="" style="endArrow=none;html=1;rounded=0;" edge="1" parent="1">
          <mxGeometry width="50" height="50" relative="1" as="geometry">
            <mxPoint x="520" y="40" as="sourcePoint" />
            <mxPoint x="580" y="40" as="targetPoint" />
          </mxGeometry>
        </mxCell>
        <mxCell id="G6i_hRRT8_Z-7Q2OzLo--12" value="user info" style="text;html=1;strokeColor=none;fillColor=none;align=center;verticalAlign=middle;whiteSpace=wrap;rounded=0;" vertex="1" parent="1">
          <mxGeometry x="520" y="40" width="60" height="30" as="geometry" />
        </mxCell>
        <mxCell id="G6i_hRRT8_Z-7Q2OzLo--13" value="" style="endArrow=classic;html=1;rounded=0;exitX=0.855;exitY=0.145;exitDx=0;exitDy=0;exitPerimeter=0;" edge="1" parent="1" source="G6i_hRRT8_Z-7Q2OzLo--1">
          <mxGeometry width="50" height="50" relative="1" as="geometry">
            <mxPoint x="340" y="230" as="sourcePoint" />
            <mxPoint x="500" y="30" as="targetPoint" />
          </mxGeometry>
        </mxCell>
        <mxCell id="G6i_hRRT8_Z-7Q2OzLo--14" value="" style="endArrow=classic;html=1;rounded=0;entryX=1.04;entryY=0.333;entryDx=0;entryDy=0;entryPerimeter=0;" edge="1" parent="1" target="G6i_hRRT8_Z-7Q2OzLo--4">
          <mxGeometry width="50" height="50" relative="1" as="geometry">
            <mxPoint x="510" y="60" as="sourcePoint" />
            <mxPoint x="390" y="180" as="targetPoint" />
          </mxGeometry>
        </mxCell>
        <mxCell id="G6i_hRRT8_Z-7Q2OzLo--15" value="" style="endArrow=classic;html=1;rounded=0;exitX=1;exitY=0.5;exitDx=0;exitDy=0;exitPerimeter=0;" edge="1" parent="1" source="G6i_hRRT8_Z-7Q2OzLo--4">
          <mxGeometry width="50" height="50" relative="1" as="geometry">
            <mxPoint x="440" y="180" as="sourcePoint" />
            <mxPoint x="520" y="150" as="targetPoint" />
          </mxGeometry>
        </mxCell>
      </root>
    </mxGraphModel>
  </diagram>
  <diagram id="MI2tNRsE5aHidpLo9ihw" name="Page-2">
    <mxGraphModel dx="1222" dy="702" grid="1" gridSize="10" guides="1" tooltips="1" connect="1" arrows="1" fold="1" page="1" pageScale="1" pageWidth="1169" pageHeight="827" math="0" shadow="0">
      <root>
        <mxCell id="0" />
        <mxCell id="1" parent="0" />
        <mxCell id="---odWJL_9JeowPd-2aQ-2" value="&lt;font style=&quot;font-size: 36px;&quot;&gt;LEVEL 0 DFD&lt;/font&gt;" style="rounded=1;whiteSpace=wrap;html=1;fillColor=#f5f5f5;fontColor=#333333;strokeColor=#666666;" vertex="1" parent="1">
          <mxGeometry x="410" y="50" width="380" height="80" as="geometry" />
        </mxCell>
        <mxCell id="---odWJL_9JeowPd-2aQ-9" value="" style="ellipse;whiteSpace=wrap;html=1;direction=south;" vertex="1" parent="1">
          <mxGeometry x="800" y="250" width="240" height="290" as="geometry" />
        </mxCell>
        <mxCell id="---odWJL_9JeowPd-2aQ-11" value="&lt;font style=&quot;font-size: 30px;&quot;&gt;Chat&lt;br&gt;Application&lt;/font&gt;" style="text;html=1;strokeColor=none;fillColor=none;align=center;verticalAlign=middle;whiteSpace=wrap;rounded=0;" vertex="1" parent="1">
          <mxGeometry x="840" y="330" width="160" height="110" as="geometry" />
        </mxCell>
        <mxCell id="---odWJL_9JeowPd-2aQ-12" value="" style="rounded=1;whiteSpace=wrap;html=1;" vertex="1" parent="1">
          <mxGeometry x="130" y="260" width="250" height="250" as="geometry" />
        </mxCell>
        <mxCell id="---odWJL_9JeowPd-2aQ-13" value="&lt;font style=&quot;font-size: 30px;&quot;&gt;user&lt;/font&gt;" style="text;html=1;strokeColor=none;fillColor=none;align=center;verticalAlign=middle;whiteSpace=wrap;rounded=0;" vertex="1" parent="1">
          <mxGeometry x="225" y="380" width="60" height="30" as="geometry" />
        </mxCell>
        <mxCell id="---odWJL_9JeowPd-2aQ-16" value="" style="endArrow=classic;html=1;rounded=0;exitX=0.998;exitY=0.105;exitDx=0;exitDy=0;exitPerimeter=0;" edge="1" parent="1" source="---odWJL_9JeowPd-2aQ-12">
          <mxGeometry width="50" height="50" relative="1" as="geometry">
            <mxPoint x="400" y="310" as="sourcePoint" />
            <mxPoint x="800" y="360" as="targetPoint" />
          </mxGeometry>
        </mxCell>
        <mxCell id="---odWJL_9JeowPd-2aQ-17" value="Login&amp;nbsp;" style="text;html=1;strokeColor=none;fillColor=none;align=center;verticalAlign=middle;whiteSpace=wrap;rounded=0;rotation=15;" vertex="1" parent="1">
          <mxGeometry x="570" y="300" width="60" height="30" as="geometry" />
        </mxCell>
        <mxCell id="---odWJL_9JeowPd-2aQ-18" value="" style="endArrow=classic;html=1;rounded=0;exitX=1;exitY=0.5;exitDx=0;exitDy=0;entryX=0.466;entryY=1.007;entryDx=0;entryDy=0;entryPerimeter=0;" edge="1" parent="1" source="---odWJL_9JeowPd-2aQ-12" target="---odWJL_9JeowPd-2aQ-9">
          <mxGeometry width="50" height="50" relative="1" as="geometry">
            <mxPoint x="580" y="380" as="sourcePoint" />
            <mxPoint x="770" y="385" as="targetPoint" />
          </mxGeometry>
        </mxCell>
        <mxCell id="---odWJL_9JeowPd-2aQ-19" value="chat" style="text;html=1;strokeColor=none;fillColor=none;align=center;verticalAlign=middle;whiteSpace=wrap;rounded=0;" vertex="1" parent="1">
          <mxGeometry x="550" y="360" width="60" height="30" as="geometry" />
        </mxCell>
        <mxCell id="---odWJL_9JeowPd-2aQ-20" value="" style="endArrow=classic;html=1;rounded=0;exitX=1.009;exitY=0.706;exitDx=0;exitDy=0;exitPerimeter=0;entryX=0.643;entryY=1;entryDx=0;entryDy=0;entryPerimeter=0;" edge="1" parent="1" source="---odWJL_9JeowPd-2aQ-12" target="---odWJL_9JeowPd-2aQ-9">
          <mxGeometry width="50" height="50" relative="1" as="geometry">
            <mxPoint x="560" y="464" as="sourcePoint" />
            <mxPoint x="610" y="414" as="targetPoint" />
          </mxGeometry>
        </mxCell>
        <mxCell id="---odWJL_9JeowPd-2aQ-21" value="group_chat" style="text;html=1;strokeColor=none;fillColor=none;align=center;verticalAlign=middle;whiteSpace=wrap;rounded=0;" vertex="1" parent="1">
          <mxGeometry x="540" y="410" width="60" height="30" as="geometry" />
        </mxCell>
      </root>
    </mxGraphModel>
  </diagram>
</mxfile>
